<?xml version="1.0" encoding="iso-8859-1"?>
<!-- Generator: Adobe Illustrator 19.0.0, SVG Export Plug-In . SVG Version: 6.00 Build 0)  -->
<svg version="1.1" id="Layer_1" xmlns="http://www.w3.org/2000/svg" xmlns:xlink="http://www.w3.org/1999/xlink" x="0px" y="0px"
	 viewBox="0 0 503.61 503.61" style="enable-background:new 0 0 503.61 503.61;" xml:space="preserve">
<g>
	<g>
		<path d="M386.1,486.82H276.985v-33.574h16.787c4.365,0,8.002-3.346,8.364-7.696l2.784-33.406c0.001-0.007,0.001-0.014,0.002-0.021
			l5.164-61.969c15.327-5.39,26.666-19.439,27.932-36.499l13.932-163.817c10.076-3.291,17.363-12.763,17.363-23.936
			c0-13.902-11.278-25.18-25.18-25.18h-16.787V25.18c0-13.902-11.278-25.18-25.18-25.18s-25.18,11.278-25.18,25.18v75.541h-50.361
			V25.18c0-13.902-11.278-25.18-25.18-25.18s-25.18,11.278-25.18,25.18v75.541h-16.787c-13.902,0-25.18,11.278-25.18,25.18
			c0,11.173,7.288,20.646,17.366,23.937l13.931,163.906c1.26,16.989,12.601,31.022,27.93,36.41l2.363,28.351
			c0.003,0.029,0.004,0.057,0.007,0.086l5.58,66.959c0.363,4.35,3.999,7.696,8.364,7.696h16.787v33.574H117.51
			c-4.636,0-8.393,3.758-8.393,8.393s3.758,8.393,8.393,8.393h117.442c0.022,0,0.044,0.003,0.066,0.003h33.574
			c0.022,0,0.044-0.003,0.066-0.003H386.1c4.636,0,8.393-3.758,8.393-8.393S390.736,486.82,386.1,486.82z M293.772,25.18
			c0-4.631,3.763-8.393,8.393-8.393s8.393,3.763,8.393,8.393v75.541h-16.787V25.18z M193.051,25.18c0-4.631,3.763-8.393,8.393-8.393
			s8.393,3.763,8.393,8.393v75.541h-16.787V25.18z M159.477,117.508h25.18h33.574h67.148h33.574h25.18
			c4.631,0,8.393,3.763,8.393,8.393c0,4.631-3.763,8.393-8.393,8.393h-41.967H201.444h-41.966h-0.002
			c-4.631,0-8.393-3.763-8.393-8.393C151.084,121.271,154.846,117.508,159.477,117.508z M209.838,151.082h83.934v50.361
			c0,23.172-18.795,41.967-41.967,41.967c-23.172,0-41.967-18.795-41.967-41.967V151.082z M182.328,312.412l-13.712-161.33h24.435
			v50.361c0,32.443,26.311,58.754,58.754,58.754s58.754-26.311,58.754-58.754v-50.361h24.438l-13.713,161.24
			c-0.983,13.245-11.932,23.416-25.118,23.416h-88.719C194.259,335.738,183.304,325.565,182.328,312.412z M216.162,419.672h18.856
			c4.636,0,8.393-3.758,8.393-8.393s-3.758-8.393-8.393-8.393h-20.255l-1.399-16.787h21.654c4.636,0,8.393-3.758,8.393-8.393
			c0-4.636-3.758-8.393-8.393-8.393h-23.053l-1.399-16.787h82.477l-1.399,16.787h-23.057c-4.636,0-8.393,3.758-8.393,8.393
			c0,4.636,3.758,8.393,8.393,8.393h21.658l-1.399,16.787h-20.251c-4.636,0-8.393,3.758-8.393,8.393s3.758,8.393,8.393,8.393h18.852
			l-1.399,16.787h-68.488L216.162,419.672z M243.412,453.249h16.787v33.57h-16.787V453.249z"/>
	</g>
</g>
<g>
</g>
<g>
</g>
<g>
</g>
<g>
</g>
<g>
</g>
<g>
</g>
<g>
</g>
<g>
</g>
<g>
</g>
<g>
</g>
<g>
</g>
<g>
</g>
<g>
</g>
<g>
</g>
<g>
</g>
</svg>
